<?xml version="1.0" standalone="no"?>
<!DOCTYPE svg PUBLIC "-//W3C//DTD SVG 20010904//EN"
 "http://www.w3.org/TR/2001/REC-SVG-20010904/DTD/svg10.dtd">
<svg version="1.0" xmlns="http://www.w3.org/2000/svg"
 width="2000.000000pt" height="2000.000000pt" viewBox="0 0 2000.000000 2000.000000"
 preserveAspectRatio="xMidYMid meet">
<metadata>
Created by potrace 1.14, written by Peter Selinger 2001-2017
</metadata>
<g transform="translate(0.000000,2000.000000) scale(0.100000,-0.100000)"
fill="#000000" stroke="none">
<path d="M3750 10000 l0 -6250 6250 0 6250 0 0 6250 0 6250 -6250 0 -6250 0 0
-6250z m11965 5718 c7 -4 10 -1921 10 -5725 l0 -5718 -5725 0 -5725 0 -1 5715
c0 3143 1 5720 3 5725 4 11 11421 14 11438 3z"/>
<path d="M7200 12868 c-6 -24 -29 -104 -51 -178 -22 -74 -51 -171 -64 -215
-25 -83 -58 -196 -60 -205 -1 -3 -7 -25 -15 -50 -7 -25 -14 -49 -16 -55 -1 -5
-50 -172 -109 -370 -139 -471 -167 -567 -227 -770 -27 -93 -59 -199 -70 -235
-11 -36 -22 -74 -25 -85 -13 -46 -336 -1146 -358 -1220 -13 -44 -40 -136 -60
-205 -20 -69 -72 -244 -115 -390 -43 -146 -94 -319 -114 -385 -19 -66 -71
-244 -116 -395 -45 -151 -84 -284 -87 -295 -12 -44 -187 -638 -204 -689 -5
-16 -9 -31 -9 -32 0 -2 146 -4 324 -4 l324 0 10 33 c6 17 20 64 31 102 11 39
38 131 60 205 22 74 60 207 86 295 83 286 113 387 165 565 28 96 57 198 65
225 8 28 21 69 29 93 8 23 15 44 16 47 0 3 0 6 1 8 0 1 2 9 4 17 2 8 21 76 42
150 l39 135 866 3 865 2 93 -302 c50 -167 100 -330 110 -363 46 -151 93 -304
125 -407 19 -62 77 -255 130 -428 53 -173 101 -330 106 -347 l11 -33 334 0
c361 0 347 -2 325 52 -9 20 -167 540 -177 578 -2 8 -26 89 -55 180 -66 214
-159 521 -164 540 -2 8 -8 29 -14 45 -17 55 -113 369 -121 400 -5 17 -13 44
-18 60 -21 63 -276 899 -322 1055 -15 52 -65 214 -110 360 -45 146 -84 274
-87 285 -3 11 -25 83 -48 160 -24 77 -55 181 -70 230 -15 50 -35 117 -46 150
-31 102 -167 548 -177 585 -6 19 -20 65 -31 103 -36 114 -57 184 -129 422 -39
127 -94 307 -122 400 -29 94 -55 180 -57 193 l-5 22 -349 0 -348 0 -11 -42z
m413 -1113 c31 -99 71 -232 91 -295 43 -144 185 -608 231 -755 51 -167 153
-498 186 -610 17 -55 34 -111 39 -125 5 -14 23 -72 40 -130 17 -58 42 -138 55
-177 13 -40 20 -74 17 -76 -12 -6 -1400 -2 -1406 4 -3 3 19 91 50 195 31 104
83 279 115 389 33 110 61 207 63 215 2 8 25 85 51 170 26 85 50 169 54 185 5
17 18 62 30 100 27 87 231 775 235 795 10 40 89 300 91 298 1 -2 27 -84 58
-183z"/>
<path d="M10409 12888 c-1 -24 0 -5777 1 -5791 0 -4 134 -6 298 -5 l297 3 0
2322 c0 1702 3 2319 11 2310 6 -7 154 -244 329 -527 175 -283 332 -537 350
-565 17 -27 128 -205 245 -395 117 -190 227 -367 245 -395 17 -27 49 -79 71
-115 21 -36 42 -66 47 -68 4 -2 7 -8 7 -12 0 -5 35 -64 77 -132 42 -68 113
-181 157 -253 93 -152 160 -260 197 -318 15 -23 127 -204 250 -402 201 -326
268 -433 348 -562 14 -23 46 -75 70 -115 25 -40 76 -122 114 -183 39 -60 75
-119 81 -130 6 -11 74 -120 150 -242 l138 -223 304 0 304 0 0 2910 0 2910
-304 0 -304 0 0 -2317 c-1 -1275 -1 -2320 -1 -2322 -1 -5 -50 72 -165 259
-100 162 -89 145 -178 287 -43 68 -78 125 -78 128 0 2 -13 24 -29 47 -16 24
-100 158 -187 298 -86 140 -167 271 -179 290 -13 19 -389 625 -836 1345 -447
721 -887 1429 -977 1575 -91 146 -185 298 -209 338 l-44 72 -300 0 -299 0 -1
-22z"/>
</g>
</svg>
